<svg width="600" height="900" viewBox="0 0 600 900" xmlns="http://www.w3.org/2000/svg" role="img" aria-label="Poster Cuoi Ma">
  <defs>
    <linearGradient id="bg2" x1="0" y1="0" x2="0" y2="1">
      <stop offset="0%" stop-color="#0a0f0b"/>
      <stop offset="100%" stop-color="#0f2417"/>
    </linearGradient>
    <radialGradient id="glow2" cx="50%" cy="28%" r="38%">
      <stop offset="0%" stop-color="#39ff14" stop-opacity="0.5"/>
      <stop offset="100%" stop-color="#0f2a0f" stop-opacity="0"/>
    </radialGradient>
  </defs>
  <rect width="600" height="900" fill="url(#bg2)"/>
  <rect width="600" height="900" fill="url(#glow2)"/>
  <path d="M300 120c80 0 140 60 140 140s-60 170-140 170-140-90-140-170 60-140 140-140z" fill="#1c3b24"/>
  <circle cx="300" cy="260" r="95" fill="#0b1210"/>
  <g stroke="#2b352f" stroke-width="4" opacity="0.6">
    <line x1="120" y1="520" x2="90" y2="860"/>
    <line x1="210" y1="520" x2="180" y2="860"/>
    <line x1="300" y1="520" x2="270" y2="860"/>
    <line x1="390" y1="520" x2="360" y2="860"/>
    <line x1="480" y1="520" x2="450" y2="860"/>
  </g>
  <text x="70" y="610" fill="#f2e9e4" font-family="'Trebuchet MS', sans-serif" font-size="56" font-weight="700">CUOI MA</text>
  <text x="70" y="670" fill="#f2e9e4" font-family="'Trebuchet MS', sans-serif" font-size="56" font-weight="700">HIEN ME</text>
  <text x="70" y="720" fill="#c7c1d1" font-family="'Trebuchet MS', sans-serif" font-size="26">Dem toi, cuoi ma</text>
  <rect x="20" y="20" width="560" height="860" rx="18" ry="18" fill="none" stroke="#a7a1b8" stroke-width="3"/>
</svg>
